<?xml version="1.0" encoding="UTF-8" standalone="no"?>
<svg
   width="192.58385"
   height="55.258053"
   overflow="hidden"
   version="1.1"
   id="svg28"
   sodipodi:docname="Rastr 2 (1).svg"
   inkscape:version="1.2.2 (732a01da63, 2022-12-09)"
   xmlns:inkscape="http://www.inkscape.org/namespaces/inkscape"
   xmlns:sodipodi="http://sodipodi.sourceforge.net/DTD/sodipodi-0.dtd"
   xmlns="http://www.w3.org/2000/svg"
   xmlns:svg="http://www.w3.org/2000/svg">
  <defs
     id="defs32" />
  <sodipodi:namedview
     id="namedview30"
     pagecolor="#ffffff"
     bordercolor="#000000"
     borderopacity="0.25"
     inkscape:showpageshadow="2"
     inkscape:pageopacity="0.0"
     inkscape:pagecheckerboard="0"
     inkscape:deskcolor="#d1d1d1"
     showgrid="false"
     inkscape:zoom="1.8921875"
     inkscape:cx="-63.947152"
     inkscape:cy="-61.568952"
     inkscape:window-width="1920"
     inkscape:window-height="1121"
     inkscape:window-x="-9"
     inkscape:window-y="-9"
     inkscape:window-maximized="1"
     inkscape:current-layer="g26" />
  <g
     id="g26"
     transform="translate(-266.93725,-87.585938)">
    <path
       d="M 274.5935,108.09375 V 142 h -7.65625 v -41.60156 h 7.65625 v 7.34375 q 0.0781,-1.52344 0.70312,-2.85156 0.625,-1.36719 1.64063,-2.34375 1.05469,-1.01563 2.42187,-1.5625 1.36719,-0.58594 2.92969,-0.58594 h 8.16406 q 1.60157,0 2.96875,0.625 1.40625,0.58594 2.46094,1.64062 1.05469,1.01563 1.64063,2.42188 0.625,1.40625 0.625,3.00781 v 7.03125 h -7.69532 v -7.03125 z"
       style="font-weight:700;font-size:80px;font-family:Aldrich;-inkscape-font-specification:'Aldrich Bold';fill:#e97132"
       id="path955" />
    <path
       d="m 301.7185,123.83594 q 0,-1.60156 0.58594,-2.96875 0.625,-1.40625 1.64062,-2.46094 1.05469,-1.05469 2.46094,-1.64062 1.40625,-0.625 2.96875,-0.625 h 19.84375 v -8.04688 h -25.11719 v -7.69531 h 25.11719 q 1.60156,0 3.00781,0.625 1.40625,0.58594 2.42188,1.64062 1.05468,1.01563 1.64062,2.42188 0.625,1.40625 0.625,3.00781 V 142 h -7.69531 v -7.03125 q -0.11719,1.44531 -0.78125,2.73437 -0.66406,1.28907 -1.71875,2.26563 -1.01563,0.9375 -2.34375,1.48437 Q 323.04662,142 321.56225,142 h -12.1875 q -1.5625,0 -2.96875,-0.58594 -1.40625,-0.625 -2.46094,-1.64062 -1.01562,-1.05469 -1.64062,-2.46094 -0.58594,-1.40625 -0.58594,-3.00781 z m 7.65625,10.46875 h 19.84375 v -10.46875 h -19.84375 z"
       style="font-weight:700;font-size:80px;font-family:Aldrich;-inkscape-font-specification:'Aldrich Bold';fill:#e97132"
       id="path957" />
    <path
       d="m 368.8435,134.30469 v -9.64844 h -18.24219 q -1.60156,0 -3.00781,-0.58594 -1.40625,-0.625 -2.46094,-1.64062 -1.01562,-1.05469 -1.64062,-2.46094 -0.58594,-1.40625 -0.58594,-3.00781 v -8.86719 q 0,-1.60156 0.58594,-3.00781 0.625,-1.40625 1.64062,-2.42188 1.05469,-1.05468 2.46094,-1.64062 1.40625,-0.625 3.00781,-0.625 h 24.33594 v 7.69531 h -24.33594 v 8.86719 h 18.24219 q 1.60156,0 2.96875,0.625 1.40625,0.58594 2.46094,1.64062 1.05469,1.01563 1.64062,2.42188 0.625,1.40625 0.625,3.00781 v 9.64844 q 0,1.60156 -0.625,3.00781 -0.58593,1.40625 -1.64062,2.46094 -1.05469,1.01562 -2.46094,1.64062 Q 370.44506,142 368.8435,142 H 342.906 v -7.69531 z"
       style="font-weight:700;font-size:80px;font-family:Aldrich;-inkscape-font-specification:'Aldrich Bold';fill:#e97132"
       id="path959" />
    <path
       d="m 380.10912,100.39844 h 10.15625 V 87.585938 h 7.69532 v 12.812502 h 13.67187 v 7.69531 h -13.67187 v 26.21094 h 13.67187 V 142 h -13.67187 q -1.5625,0 -2.96875,-0.58594 -1.40625,-0.625 -2.46094,-1.64062 -1.05469,-1.05469 -1.67969,-2.46094 -0.58594,-1.40625 -0.58594,-3.00781 v -26.21094 h -10.15625 z"
       style="font-weight:700;font-size:80px;font-family:Aldrich;-inkscape-font-specification:'Aldrich Bold';fill:#e97132"
       id="path961" />
    <text
       fill="#e97132"
       font-family="Orbitron, Orbitron_MSFontService, sans-serif"
       font-weight="700"
       font-size="80px"
       transform="translate(470.197,142)"
       id="text6" />
    <rect
       x="417.54575"
       y="100.86866"
       width="13.412391"
       height="13.412391"
       stroke="#042433"
       stroke-width="1.78832"
       stroke-miterlimit="8"
       fill="#ed8a59"
       id="rect8"
       style="fill:#e97132;fill-opacity:1;stroke:#063f56;stroke-width:1.688;stroke-linejoin:round;stroke-dasharray:none;stroke-opacity:1" />
    <rect
       x="430.9581"
       y="100.86866"
       width="13.412391"
       height="13.412391"
       stroke="#042433"
       stroke-width="1.78832"
       stroke-miterlimit="8"
       fill="#e97132"
       id="rect10"
       style="stroke:#063f56;stroke-width:1.688;stroke-linejoin:round;stroke-dasharray:none;stroke-opacity:1" />
    <rect
       x="444.37054"
       y="100.86866"
       width="14.306551"
       height="13.412391"
       stroke="#042433"
       stroke-width="1.78832"
       stroke-miterlimit="8"
       fill="#e97132"
       id="rect12"
       style="fill:#156082;fill-opacity:1;stroke:#063f56;stroke-width:1.688;stroke-linejoin:round;stroke-dasharray:none;stroke-opacity:1" />
    <rect
       x="417.54575"
       y="114.28107"
       width="13.412391"
       height="14.306551"
       stroke="#042433"
       stroke-width="1.78832"
       stroke-miterlimit="8"
       fill="#e97132"
       id="rect14"
       style="stroke:#063f56;stroke-width:1.688;stroke-linejoin:round;stroke-dasharray:none;stroke-opacity:1" />
    <rect
       x="430.9581"
       y="114.28107"
       width="13.412391"
       height="14.306551"
       stroke="#042433"
       stroke-width="1.78832"
       stroke-miterlimit="8"
       fill="#063f56"
       id="rect16"
       style="stroke:#063f56;stroke-width:1.688;stroke-linejoin:round;stroke-dasharray:none;stroke-opacity:1" />
    <rect
       x="444.37054"
       y="114.28107"
       width="14.306551"
       height="14.306551"
       stroke="#042433"
       stroke-width="1.78832"
       stroke-miterlimit="8"
       fill="#156082"
       id="rect18"
       style="stroke:#063f56;stroke-width:1.688;stroke-linejoin:round;stroke-dasharray:none;stroke-opacity:1" />
    <rect
       x="417.54575"
       y="128.5876"
       width="13.412391"
       height="13.412391"
       stroke="#042433"
       stroke-width="1.78832"
       stroke-miterlimit="8"
       fill="#c55015"
       id="rect20"
       style="fill:#e97132;fill-opacity:1;stroke:#063f56;stroke-width:1.688;stroke-linejoin:round;stroke-dasharray:none;stroke-opacity:1" />
    <rect
       x="430.9581"
       y="128.5876"
       width="13.412391"
       height="13.412391"
       stroke="#042433"
       stroke-width="1.78832"
       stroke-miterlimit="8"
       fill="#156082"
       id="rect22"
       style="stroke:#063f56;stroke-width:1.688;stroke-linejoin:round;stroke-dasharray:none;stroke-opacity:1" />
    <rect
       x="444.37054"
       y="128.5876"
       width="14.306551"
       height="13.412391"
       stroke="#042433"
       stroke-width="1.78832"
       stroke-miterlimit="8"
       fill="#1a78a2"
       id="rect24"
       style="stroke:#063f56;stroke-width:1.688;stroke-linejoin:round;stroke-dasharray:none;stroke-opacity:1" />
  </g>
</svg>
